<svg width="1216" height="304" viewBox="0 0 1216 304" fill="none" xmlns="http://www.w3.org/2000/svg">
  <path
    d="M1155.77 59.2305C1168.64 53.8649 1184.85 64.0988 1185.22 78.0887C1186.54 89.0555 1178.06 99.8915 1167.19 101.423C1155.08 104.08 1142.22 94.2641 1141.48 81.9232C1140.29 72.1996 1146.68 62.5153 1155.77 59.2305ZM1158.55 64.7532C1152.33 66.7031 1147.58 72.7493 1147.52 79.2927C1146.93 88.2441 1155.33 96.5543 1164.29 95.6906C1173.56 95.4681 1181.19 85.7576 1178.99 76.7146C1177.41 67.7501 1167.13 61.7039 1158.55 64.7532Z"
    fill="#FCFCFC" />
  <path
    d="M1155.73 69.7144C1160.64 69.9762 1167.33 68.3534 1170.5 73.2871C1172.66 76.7028 1171.03 80.8252 1168.34 83.3641C1170.05 85.5103 1171.71 87.7089 1173.31 89.9598C1171.4 89.8682 1169.51 89.7635 1167.64 89.6588C1166.39 87.879 1165.1 86.1123 1163.87 84.3456C1162.88 84.3063 1160.9 84.254 1159.92 84.2278C1159.97 86.0207 1160.04 87.8136 1160.13 89.6065C1159.06 89.7112 1156.9 89.8944 1155.83 89.986C1155.76 83.2332 1155.88 76.4673 1155.73 69.7144ZM1160.01 74.1247C1159.97 76.1663 1159.96 78.1947 1159.96 80.2232C1162.49 80.0662 1167.41 80.642 1167.07 76.7683C1166.98 73.3002 1162.33 74.4911 1160.01 74.1247Z"
    fill="#FCFCFC" />
  <g clip-path="url(#clip0_608_38)">
    <rect x="40" y="53" width="229" height="180" rx="25" fill="#332FF8" />
    <path
      d="M232.808 30.5654C247.819 29.4138 263.549 34.0858 274.594 44.5422C283.114 52.2111 288.702 63.2826 289.121 74.786C285.09 124.935 280.785 175.071 276.885 225.22C277.107 239.406 267.58 251.577 256.495 259.416C242.833 269.035 225.833 275.474 208.938 272.987C173.21 268.983 137.483 264.939 101.743 260.96C91.234 259.351 80.3457 260.345 70.151 256.772C54.3813 251.498 39.3838 240.793 32.6178 225.168C29.8434 219.095 29.7911 212.316 30.1575 205.786C30.8642 171.263 31.4924 136.753 32.343 102.243C33.2329 90.3856 30.8904 77.9007 35.8765 66.6983C43.8726 47.6307 64.5368 35.931 84.8084 36.0096C134.133 34.2036 183.47 32.3845 232.808 30.5654ZM180.984 58.7938C173.956 60.7176 168.368 67.3396 168.407 74.7468C167.74 84.1431 176.168 92.6496 185.525 92.4271C196.426 92.859 205.417 81.0285 202.054 70.6636C199.79 61.8823 189.661 56.1895 180.984 58.7938ZM148.973 82.5858C139.564 92.7936 130.259 103.106 120.915 113.393C116.832 117.842 116.924 125.537 121.491 129.62C131.005 138.506 140.794 147.091 150.413 155.873C145.911 170.203 141.658 184.624 137.261 198.981C134.879 205.864 141.71 213.586 148.895 212.29C154.117 212.513 156.695 207.304 158.082 203.077C163.264 186.103 168.368 169.117 173.42 152.117C174.925 147.798 172.124 143.636 168.983 140.94C161.354 134.188 153.959 127.16 146.251 120.512C149.811 116.717 153.2 112.764 156.695 108.904C162.178 115.683 167.661 122.449 173.21 129.175C175.487 132.12 179.06 134.004 182.803 133.991C194.189 134.031 205.561 134.017 216.947 134.004C223.385 134.161 229.235 128.338 228.974 121.873C228.803 116.088 223.948 110.841 218.098 110.54C208.152 110.304 198.193 110.54 188.247 110.435C180.958 101.405 173.642 92.401 166.261 83.4626C162.23 78.2148 153.423 77.5081 148.973 82.5858ZM208.401 138.441C189.242 142.903 174.362 161.107 174.218 180.842C173.21 200.381 186.755 219.449 205.456 225.102C219.446 229.722 235.687 226.921 247.177 217.669C262.568 206.035 268.836 183.983 261.547 166.054C253.943 145.311 229.798 132.552 208.401 138.441ZM81.5105 139.789C62.3251 143.623 46.9611 161.264 46.045 180.842C44.6316 197.45 53.6747 214.109 67.9001 222.576C81.6806 230.847 99.8452 230.952 113.757 222.904C132.091 212.565 141.291 188.59 133.688 168.789C126.686 147.85 102.999 134.685 81.5105 139.789Z"
      fill="#FCFCFC" />
  </g>
  <path
    d="M213.531 158.058C221.186 156.213 229.693 158.268 235.648 163.424C241.366 168.331 244.612 175.935 244.167 183.46C243.827 192.974 237.388 201.873 228.515 205.263C221.33 208.246 212.811 207.474 206.254 203.286C198.219 198.392 193.325 188.695 194.62 179.285C195.667 169.169 203.624 160.309 213.531 158.058Z"
    fill="#FCFCFC" />
  <path
    d="M83.7488 160.087C96.1159 156.082 110.498 163.293 114.608 175.634C118.036 184.886 115.053 195.905 107.645 202.37C100.605 208.809 89.6903 210.563 81.0268 206.545C71.6958 202.462 65.3356 192.293 66.2517 182.073C66.8406 172.074 74.1823 162.979 83.7488 160.087Z"
    fill="#FCFCFC" />
  <path
    d="M622.936 15.5618C633.053 15.3945 643.183 15.6004 653.3 15.3945C640.969 85.7374 628.638 156.081 616.127 226.398C605.959 226.385 595.79 226.359 585.622 226.398C586.278 222.086 587.179 217.812 587.964 213.526C581.94 218.778 575.698 224.274 567.859 226.552C559.891 228.56 551.177 228.586 543.506 225.407C536.748 222.613 532.424 215.573 531.716 208.455C530.184 194.463 534.058 180.652 536.169 166.905C540.275 145.333 543.171 123.503 548.307 102.136C551.087 88.9938 561.977 77.757 575.196 75.1183C583.588 73.9856 592.945 73.6896 600.218 78.761C604.478 81.2581 606.975 85.5958 609.833 89.4443C614.068 64.7954 618.251 40.1078 622.936 15.5618ZM587.063 105.56C579.791 107.22 576.213 114.853 574.797 121.508C571.386 140.467 568.091 159.44 564.744 178.413C563.882 183.445 563.779 189.096 566.662 193.524C569.584 197.797 575.479 198.067 580.074 197.012C587.681 194.759 592.521 187.165 593.808 179.648C597.296 160.161 600.694 140.66 604.131 121.173C604.607 117.492 604.749 113.424 602.548 110.232C599.394 105.096 592.495 103.861 587.063 105.56Z"
    fill="white" />
  <path
    d="M445.865 91.7205C455.956 80.5222 471.08 73.8548 486.217 74.5112C496.733 74.0993 507.983 77.5618 514.843 85.9025C523.017 95.3245 524.754 108.633 522.669 120.578C520.159 134.634 517.868 148.728 515.152 162.745C495.266 162.913 475.379 162.707 455.493 162.848C454.502 170.726 452.507 178.448 451.708 186.352C451.258 191.243 454.643 196.082 459.509 197.086C464.361 197.872 469.896 197.82 473.912 194.577C477.657 191.359 479.859 186.828 481.661 182.323C491.778 182.606 501.946 181.731 512.024 183.044C508.729 197.099 501.277 210.602 489.01 218.698C476.036 227.592 458.942 230.346 443.857 225.764C433.727 222.688 424.936 214.605 422.336 204.153C420.109 194.692 421.254 184.833 422.812 175.346C425.837 158.485 428.746 141.597 431.783 124.736C434.087 112.958 437.627 100.807 445.865 91.7205ZM464.567 115.726C461.967 123.075 461.504 130.978 459.856 138.573C469.587 138.675 479.318 138.611 489.049 138.598C489.834 131.789 491.662 125.122 492.305 118.3C492.846 113.859 491.34 108.839 487.272 106.51C478.906 102.133 467.669 106.896 464.567 115.726Z"
    fill="white" />
  <path
    d="M685.138 79.9561C695.229 74.7561 706.917 73.5461 718.063 75.0006C729.12 76.8284 739.996 83.4701 744.592 94.0119C748.453 102.816 748.041 112.702 746.432 121.982C740.241 156.774 734.294 191.604 727.936 226.37C717.793 226.409 707.65 226.357 697.52 226.383C698.228 221.273 699.322 216.214 700.21 211.117C693.595 217.798 686.502 224.967 676.939 226.975C666.487 229.125 653.847 227.953 646.704 219.085C639.483 211.143 640.68 199.61 641.928 189.802C644.811 173.455 649.78 155.409 663.874 145.164C678.213 136.321 696.22 135.793 712.451 138.174C714.511 133.064 714.614 127.414 715.849 122.085C716.815 116.383 716.647 108.094 710.122 105.867C699.387 102.108 688.047 109.908 684.263 119.897C674.403 119.845 664.556 119.948 654.723 119.845C658.674 103.099 669.422 87.5503 685.138 79.9561ZM682.538 166.363C676.9 170.327 674.403 177.33 673.567 183.907C672.704 188.708 673.631 194.127 676.977 197.834C681.161 201.953 687.841 201.721 693.002 199.803C699.515 197.062 703.673 190.407 704.922 183.637C706.312 176.364 707.599 169.066 708.757 161.755C699.85 160.082 690.171 161.253 682.538 166.363Z"
    fill="white" />
  <path
    d="M804.389 89.2356C811.185 82.8385 818.831 76.2611 828.42 74.9096C835.911 74.0344 843.969 74.0472 850.79 77.7413C856.763 81.2167 860.174 88.0128 860.792 94.7575C861.577 103.33 860.264 111.903 858.861 120.359C855.694 138.199 852.605 156.052 849.426 173.905C847.495 184.163 845.989 194.564 842.797 204.539C839.438 215.042 830.453 223.357 819.963 226.511C810.657 228.699 800.064 228.866 791.839 223.331C787.849 220.873 785.583 216.638 782.507 213.266C778.453 238.121 773.587 262.847 769.623 287.728C759.403 287.676 749.183 287.779 738.976 287.663C749.839 225.404 760.831 163.17 771.798 100.923C773.381 92.6208 774.475 84.2286 776.393 75.9908C786.523 76.5572 796.666 75.8235 806.796 76.4156C805.946 80.6761 805.109 84.9494 804.389 89.2356ZM812.279 105.531C804.723 107.707 799.948 115.185 798.584 122.586C794.992 142.537 791.556 162.514 788.055 182.49C786.665 188.578 790.269 195.864 796.666 197.189C801.48 197.923 806.963 197.563 810.76 194.165C815.111 190.2 817.016 184.318 818.02 178.667C821.199 160.21 824.597 141.79 827.725 123.333C828.626 118.622 828.278 113.499 825.91 109.264C823.091 104.862 816.926 104.077 812.279 105.531Z"
    fill="white" />
  <path
    d="M1077.73 90.0606C1085.74 82.5436 1094.86 74.3058 1106.64 74.5375C1116.54 73.2761 1126.78 78.1416 1132.03 86.611C1135.79 93.3557 1135.21 101.465 1134.39 108.866C1127.75 147.957 1120.5 186.945 1113.99 226.048C1103.74 226.769 1093.47 226.19 1083.23 226.396C1088.9 193.857 1094.66 161.318 1100.37 128.778C1101.41 122.24 1103.78 114.568 1099.39 108.737C1094.73 103.447 1086.15 104.052 1080.59 107.527C1075.23 111.402 1073.13 118.134 1071.83 124.325C1065.75 158.344 1060.03 192.428 1053.74 226.409C1043.66 226.357 1033.58 226.396 1023.5 226.383C1026.63 205.853 1030.62 185.452 1034.1 164.973C1039.42 135.33 1044.35 105.61 1049.91 76.0178C1060.06 76.494 1070.21 75.8762 1080.36 76.3653C1079.48 80.9347 1078.62 85.5041 1077.73 90.0606Z"
    fill="white" />
  <path
    d="M331.045 76.1473C341.844 76.0829 352.644 76.2245 363.443 76.2889C366.931 90.203 370.895 103.988 374.049 117.967C383.471 104.542 391.31 90.0356 400.191 76.2374C411.003 76.1988 421.815 76.0186 432.627 76.3532C416.293 100.655 400.242 125.149 384.011 149.515C391.593 175.219 400.191 200.654 407.798 226.371C397.012 226.319 386.238 226.538 375.465 226.242C371.449 211.195 367.639 196.097 363.263 181.153C353.828 196.071 344.818 211.273 335.203 226.075C324.481 226.821 313.669 226.139 302.921 226.409C319.409 200.525 336.657 175.116 353.352 149.348C345.68 125.02 338.421 100.565 331.045 76.1473Z"
    fill="white" />
  <path
    d="M933.054 76.2885C943.904 76.1083 954.742 76.0182 965.593 76.3786C966.275 108.274 967.948 140.144 968.528 172.04C973.445 161.125 977.203 149.656 981.708 138.548C989.701 117.851 997.746 97.1661 1005.58 76.4043C1016.41 75.9281 1027.23 76.2885 1038.07 76.134C1016.91 125.471 995.082 174.511 973.895 223.835C973.38 225.315 972.402 226.924 970.51 226.371C962.221 226.422 953.944 226.358 945.668 226.383C941.485 176.339 937.443 126.294 933.054 76.2885Z"
    fill="white" />
  <path
    d="M870.09 195.645C880.246 195.993 890.44 195.182 900.583 196.147C898.395 206.161 896.992 216.317 895.074 226.369C884.854 226.395 874.634 226.356 864.414 226.395C866.499 216.188 867.864 205.839 870.09 195.645Z"
    fill="white" />
  <defs>
    <clipPath id="clip0_608_38">
      <rect width="259.124" height="243.129" fill="white" transform="translate(29.9971 30.3945)" />
    </clipPath>
  </defs>
</svg>