<svg width="257" height="164" viewBox="0 0 257 164" fill="none" xmlns="http://www.w3.org/2000/svg">
	<path
		d="M10.8267 1.69363C14.4933 0.186961 18.5333 0.760296 22.3867 0.653629C95.2667 0.693629 168.16 0.640291 241.053 0.680291C248.12 0.706958 254.587 6.34696 255.88 13.2403C256.547 16.6536 256.307 20.1603 256.347 23.6136C256.307 64.8803 256.373 106.147 256.307 147.414C256.533 155.694 249.573 163.64 241.133 163.64C166.427 163.707 91.72 163.64 17.0133 163.68C8.36001 164.24 0.613341 156.454 0.720008 147.894C0.613341 104.254 0.653315 60.6003 0.693315 16.9603C0.546648 10.4003 4.67999 4.05363 10.8267 1.69363ZM8.39998 16.987C8.21331 23.8803 8.4 30.7736 8.33333 37.667C88.4533 37.667 168.56 37.667 248.667 37.6536C248.587 30.7203 248.8 23.787 248.587 16.8536C248.667 12.147 244.347 7.93363 239.64 8.33363C165.44 8.34696 91.24 8.32029 17.0533 8.34696C12.3467 8.02696 8.26665 12.3736 8.39998 16.987ZM8.33333 47.667C8.34666 80.547 8.30668 113.44 8.34668 146.32C7.84001 151.24 11.88 156.214 16.96 155.987C91.2133 156.014 165.467 155.987 239.733 156C244.907 156.414 249.093 151.427 248.653 146.427C248.693 113.507 248.64 80.587 248.667 47.667C168.56 47.667 88.4533 47.667 8.33333 47.667Z"
		fill="white" />
	<path
		d="M148.173 73.7471C154.413 72.2805 161.653 72.4005 167.053 76.2805C171.96 79.6805 174.533 85.7605 174.347 91.6271C174.307 97.8938 174.387 104.174 174.307 110.44C174.253 118.12 168.507 125.347 160.973 126.987C153.52 128.774 144.453 127.36 139.547 120.96C135.333 115.734 135.507 108.68 135.667 102.334C135.867 95.5338 134.68 88.2405 138 81.9738C140.2 78.1205 143.867 74.9738 148.173 73.7471ZM152.24 81.6671C147.933 82.7605 146.2 87.5471 146.333 91.5605C146.32 97.3605 146.307 103.16 146.333 108.96C146.293 111.547 146.88 114.2 148.453 116.294C151.76 120.574 159.387 120.28 162.2 115.587C164.64 111.147 163.867 105.867 164 101C163.787 96.0005 164.747 90.7071 162.667 85.9871C161.053 82.0271 156.12 80.4005 152.24 81.6671Z"
		fill="white" />
	<path
		d="M188.293 75.0268C195.413 71.5202 205.28 71.9868 211.027 77.9202C213.947 80.9335 214.827 85.2535 214.813 89.3335C211.4 89.3335 207.987 89.3335 204.587 89.3468C204.227 86.1335 203.293 82.0135 199.52 81.4135C193.613 78.9468 188.76 87.6002 193.093 91.7868C198.907 97.0268 208.133 97.2135 212.8 104.014C217.067 110.494 216.08 120.854 208.947 124.96C201.227 129.36 190.387 128.56 183.88 122.294C180.68 119.067 179.973 114.36 179.853 110.014C183.253 110 186.667 110 190.08 109.974C190.733 113.04 190.88 117.08 194.173 118.614C197.147 119.907 201.573 119.987 203.493 116.894C205.96 113.48 204.52 108.187 200.8 106.307C195.053 103.28 188.227 101.84 183.747 96.8002C178.587 90.1068 180.453 78.8535 188.293 75.0268Z"
		fill="white" />
	<path
		d="M95 127C95 109.227 95 91.44 95 73.6666C101.853 73.7466 108.72 73.5066 115.573 73.7466C121.467 74.0666 127.08 77.8533 129.187 83.4266C131.68 90.4933 130.68 99.6533 124.307 104.373C118.987 108.627 111.867 107.507 105.573 107.76C105.76 114.173 105.64 120.587 105.667 127C102.107 127 98.5467 127 95 127ZM105.667 99.32C109.587 98.9866 114.28 100.493 117.547 97.6133C120.84 93.6933 120.693 87.1333 117.133 83.4266C113.867 80.9466 109.44 82.36 105.68 82C105.667 87.7733 105.667 93.5466 105.667 99.32Z"
		fill="white" />
	<path
		d="M49.1333 91.587C53.08 84.747 64.52 84.6003 67.4266 92.427C70.88 84.4936 83.7333 84.4403 86.3333 93.027C89.5999 104 87.3199 115.72 87.9999 127C84.4399 127 80.8799 127 77.3333 127C77.3199 119.214 77.32 111.427 77.3466 103.627C77.36 100.947 77.1999 98.107 75.7066 95.787C73.1866 93.7203 70.2133 96.027 68.6 98.0536C68.76 107.707 68.6266 117.36 68.6666 127C65.1066 127 61.5466 127 57.9999 127C57.9999 119.214 57.9866 111.44 58.0266 103.667C57.9866 101.067 58.1199 98.2137 56.5866 95.9737C54.4399 93.7203 50.9466 95.5336 49.5066 97.6803C49.08 107.44 49.4666 117.227 49.3333 127C45.8799 127 42.4399 127 38.9999 127C38.9999 113.787 38.9866 100.56 38.9999 87.3336C42.2266 87.347 45.4666 87.2136 48.6933 87.4403C48.7999 88.4803 49.0266 90.547 49.1333 91.587Z"
		fill="white" />
</svg>