<svg width="512" height="512" viewBox="0 0 512 512" fill="none" xmlns="http://www.w3.org/2000/svg">
<rect width="512" height="512" rx="256" fill="#000083"/>
<g clip-path="url(#clip0_550_43)">
<path d="M256.24 392.988C253.841 393.003 251.482 392.386 249.398 391.21C231.543 380.877 99.3093 297.967 94.3159 295.438C92.4464 294.566 90.8337 293.227 89.6341 291.549C88.4345 289.872 87.6889 287.912 87.4693 285.862V169.565C87.4225 167.43 87.9197 165.318 88.9142 163.428C89.9087 161.538 91.3677 159.932 93.1539 158.762L94.1056 158.216C106.902 150.277 149.725 124.143 156.501 120.382C158.054 119.46 159.824 118.964 161.63 118.944C163.323 118.964 164.986 119.385 166.488 120.176C166.488 120.176 226.409 159.237 235.58 162.723C242.011 165.677 249.023 167.149 256.1 167.031C264.121 167.199 272.046 165.265 279.088 161.421C288.043 156.708 345.305 120.387 345.916 120.387C347.359 119.515 349.022 119.065 350.704 119.085C352.512 119.095 354.285 119.59 355.833 120.522C363.631 124.829 416.716 157.324 418.975 158.762C420.81 159.869 422.324 161.436 423.367 163.308C424.411 165.18 424.948 167.292 424.925 169.435V285.726C424.719 287.78 423.98 289.744 422.781 291.424C421.581 293.104 419.964 294.441 418.088 295.303C413.095 298.037 281.272 380.947 263.076 391.074C261.004 392.303 258.649 392.963 256.24 392.988Z" fill="url(#paint0_linear_550_43)"/>
<path d="M255.554 392.988H256.24C258.634 393.003 260.998 392.387 263.076 391.21C280.931 380.877 413.1 297.967 418.088 295.438C419.965 294.577 421.584 293.24 422.784 291.561C423.984 289.881 424.724 287.916 424.93 285.862V169.565C424.952 167.598 424.508 165.653 423.633 163.891L255.554 256.171V392.988Z" fill="url(#paint1_linear_550_43)"/>
<path d="M254.97 391.348H254.291C251.922 391.363 249.584 390.754 247.527 389.589C229.862 379.367 99.1017 297.34 94.1664 294.838C92.3099 293.986 90.7084 292.663 89.521 291.001C88.3336 289.339 87.6016 287.396 87.3978 285.363V170.306C87.3756 168.359 87.8154 166.435 88.6812 164.691L254.97 255.989V391.348Z" fill="url(#paint2_linear_550_43)"/>
<g clip-path="url(#clip1_550_43)">
<path d="M177 206.12H192.022V278.395H217.914V292.662H177.063L177 206.12ZM252.702 227.803C256.627 227.754 260.511 228.613 264.049 230.314C267.587 232.015 270.684 234.511 273.097 237.607V229.091H287.11V292.788H273.097V284.271C270.684 287.367 267.587 289.863 264.048 291.564C260.51 293.265 256.626 294.124 252.7 294.075C235.228 294.075 221.968 279.149 221.968 260.923C221.968 242.697 235.23 227.803 252.702 227.803ZM255.247 240.56C243.903 240.56 236.392 249.485 236.392 260.923C236.392 272.362 244.027 281.318 255.247 281.318C266.466 281.318 274.103 272.393 274.103 260.923C274.103 249.453 266.59 240.56 255.247 240.56ZM298.016 281.727L331.419 241.819H298.517V229.091H349.518V240.309L316.242 280.062H350.273V292.788H298.016V281.727ZM385.909 227.803C389.834 227.754 393.717 228.613 397.255 230.314C400.793 232.015 403.89 234.511 406.303 237.607V229.091H420.318V292.788H406.303V284.271C403.89 287.367 400.793 289.863 397.255 291.564C393.717 293.265 389.834 294.124 385.909 294.075C368.437 294.075 355.206 279.149 355.206 260.923C355.206 242.697 368.438 227.803 385.909 227.803ZM388.454 240.56C377.108 240.56 369.599 249.485 369.599 260.923C369.599 272.362 377.236 281.318 388.454 281.318C399.673 281.318 407.308 272.393 407.308 260.923C407.308 249.453 399.799 240.56 388.454 240.56ZM460.353 227.803C464.274 227.751 468.154 228.61 471.687 230.311C475.22 232.012 478.311 234.51 480.716 237.607V201H494.729V292.788H480.716V284.274C478.311 287.371 475.22 289.868 471.687 291.57C468.154 293.271 464.274 294.129 460.353 294.078C442.881 294.078 429.619 279.152 429.619 260.927C429.619 242.7 442.881 227.803 460.353 227.803ZM462.897 240.563C451.552 240.563 444.043 249.488 444.043 260.927C444.043 272.365 451.711 281.321 462.897 281.321C474.086 281.321 481.752 272.396 481.752 260.927C481.752 249.456 474.241 240.563 462.897 240.563ZM534.765 227.803C538.686 227.751 542.566 228.61 546.099 230.311C549.632 232.012 552.723 234.51 555.128 237.607V229.091H569.112V292.788H555.067V284.271C552.661 287.368 549.57 289.866 546.037 291.567C542.503 293.268 538.623 294.126 534.702 294.075C517.23 294.075 503.97 279.149 503.97 260.923C503.97 242.697 517.293 227.803 534.765 227.803ZM537.312 240.56C525.966 240.56 518.455 249.485 518.455 260.923C518.455 272.362 526.122 281.318 537.312 281.318C548.496 281.318 556.166 272.393 556.166 260.923C556.166 249.453 548.653 240.56 537.312 240.56Z" fill="white"/>
</g>
</g>
<defs>
<linearGradient id="paint0_linear_550_43" x1="87.264" y1="121.449" x2="421.624" y2="118.859" gradientUnits="userSpaceOnUse">
<stop stop-color="#FFB900"/>
<stop offset="0.338" stop-color="#F38000"/>
<stop offset="0.567" stop-color="#F83C72"/>
<stop offset="0.78" stop-color="#FC1CBE"/>
<stop offset="0.93" stop-color="#FE08ED"/>
<stop offset="1" stop-color="#FF00FF"/>
</linearGradient>
<linearGradient id="paint1_linear_550_43" x1="181.198" y1="364.389" x2="522.096" y2="175.64" gradientUnits="userSpaceOnUse">
<stop stop-color="#EE0A3F"/>
<stop offset="1" stop-color="#EE0A3F" stop-opacity="0"/>
</linearGradient>
<linearGradient id="paint2_linear_550_43" x1="214.373" y1="315.203" x2="49.6447" y2="182.505" gradientUnits="userSpaceOnUse">
<stop stop-color="#ED6600"/>
<stop offset="1" stop-color="#F98200"/>
</linearGradient>
<clipPath id="clip0_550_43">
<rect width="338" height="274.416" fill="white" transform="translate(87 118.792)"/>
</clipPath>
<clipPath id="clip1_550_43">
<rect width="173.471" height="93.0804" fill="white" transform="translate(177 201)"/>
</clipPath>
</defs>
</svg>
