<svg width="61" height="43" viewBox="0 0 61 43" fill="none" xmlns="http://www.w3.org/2000/svg">
  <path
    d="M39.5793 33.0317C40.6882 33.9508 42.0837 34.4532 43.524 34.4517C45.1672 34.4189 46.7321 33.7431 47.8826 32.5694C49.0331 31.3957 49.6775 29.8177 49.6775 28.1741C49.6775 26.5306 49.0331 24.9525 47.8826 23.7788C46.7321 22.6051 45.1672 21.9293 43.524 21.8965C42.081 21.896 40.6835 22.4011 39.5743 23.3241"
    stroke="white" stroke-width="2.2" stroke-linecap="round" stroke-linejoin="round" />
  <path
    d="M59.5882 11.8711H1.97876M5.28475 1.89551H56.2822C57.159 1.89551 57.9999 2.24382 58.6199 2.86381C59.2399 3.4838 59.5882 4.3247 59.5882 5.2015V38.5895C59.5882 39.4663 59.2399 40.3072 58.6199 40.9272C57.9999 41.5472 57.159 41.8955 56.2822 41.8955H5.28475C4.40795 41.8955 3.56706 41.5472 2.94706 40.9272C2.32707 40.3072 1.97876 39.4663 1.97876 38.5895V5.204C1.97876 4.3272 2.32707 3.48631 2.94706 2.86631C3.56706 2.24632 4.40795 1.89551 5.28475 1.89551Z"
    stroke="white" stroke-width="2.2" stroke-linecap="round" stroke-linejoin="round" />
  <path
    d="M35.6322 34.4542C39.0709 34.4542 41.8585 31.6431 41.8585 28.1754C41.8585 24.7076 39.0709 21.8965 35.6322 21.8965C32.1935 21.8965 29.4059 24.7076 29.4059 28.1754C29.4059 31.6431 32.1935 34.4542 35.6322 34.4542Z"
    stroke="white" stroke-width="2.2" />
</svg>