<svg width="68" height="44" viewBox="0 0 68 44" fill="none" xmlns="http://www.w3.org/2000/svg">
  <rect x="2" y="2" width="64.3697" height="40" rx="4" stroke="white" stroke-width="2.2" />
  <g clip-path="url(#clip0_530_58)">
    <path
      d="M28.7116 13.7617L25.9185 30.2697H30.3855L33.1807 13.7617H28.7116ZM22.1731 13.7802L17.7981 25.0382L17.3317 23.3383C16.4688 21.2902 14.0194 18.3487 11.1437 16.4949L15.1442 30.2616L19.8708 30.2534L26.9054 13.7768L22.1731 13.7802Z"
      fill="white" />
    <path
      d="M15.6359 14.963C15.3762 13.9574 14.6237 13.6577 13.6896 13.6218H6.76405L6.7066 13.9505C12.0961 15.2673 15.6623 18.4402 17.1421 22.2554L15.6359 14.963ZM42.2341 16.9278C43.38 16.9021 44.5186 17.1173 45.5774 17.5596L45.9807 17.7506L46.585 14.1726C45.7003 13.8382 44.3136 13.4795 42.5833 13.4795C38.1692 13.4795 35.0581 15.7186 35.0339 18.9274C35.0051 21.2984 37.2501 22.6222 38.9459 23.4125C40.6865 24.2225 41.2702 24.7375 41.2621 25.4606C41.2483 26.5657 39.8743 27.0726 38.5909 27.0726C36.8021 27.0726 35.8519 26.8238 34.3847 26.2082L33.8092 25.9444L33.1807 29.6391C34.2262 30.1008 36.1553 30.4978 38.1577 30.5186C42.8533 30.5186 45.9048 28.3061 45.937 24.8775C45.9565 23.0017 44.7651 21.5703 42.1835 20.3958C40.621 19.6298 39.6652 19.1206 39.6743 18.3476C39.6743 17.6615 40.4854 16.9278 42.2341 16.9278ZM58.0487 13.7815H54.5974C53.5255 13.7815 52.7281 14.0754 52.2571 15.1516L45.6245 30.2802H50.3155C50.3155 30.2802 51.0806 28.2459 51.2541 27.8004L56.9744 27.8073C57.1077 28.3837 57.5191 30.2802 57.5191 30.2802H61.6631L58.0487 13.7815ZM52.5397 24.4216C52.9073 23.4738 54.3193 19.808 54.3193 19.808C54.2952 19.8531 54.6835 18.8533 54.9145 18.2319L55.2155 19.6552L56.2507 24.4216H52.5397Z"
      fill="white" />
  </g>
  <defs>
    <clipPath id="clip0_530_58">
      <rect width="54.9565" height="17.0811" fill="white" transform="translate(6.7066 13.459)" />
    </clipPath>
  </defs>
</svg>