<svg width="512" height="512" viewBox="0 0 512 512" fill="none" xmlns="http://www.w3.org/2000/svg">
<rect width="512" height="512" rx="256" fill="#EE4D2D"/>
<path d="M300.212 271.417C298.716 284.285 290.915 294.704 278.833 299.855C272.063 302.709 263.022 304.273 255.77 303.808C244.613 303.343 234.154 300.579 224.392 295.671C221.015 293.812 215.811 290.327 211.841 287.073C210.862 286.143 210.698 285.678 211.408 284.716C211.72 284.152 212.417 283.12 213.846 281.03C216.025 277.949 216.258 277.542 216.49 277.147C217.187 276.147 218.249 276.056 219.359 276.846C219.511 277.001 219.511 277.001 219.595 277.076C219.743 277.238 219.743 277.238 220.141 277.541C220.552 277.856 220.85 278.006 220.923 278.184C231.384 286.373 243.561 291.022 255.854 291.487C272.917 291.257 285.179 283.585 287.438 271.729C289.764 258.826 279.595 247.562 259.709 241.281C253.444 239.422 237.678 233.125 234.767 231.373C221.138 223.39 214.741 212.912 215.671 199.918C217.066 181.96 233.749 168.594 254.834 168.477C264.193 168.477 273.627 170.428 282.577 174.193C285.805 175.566 291.566 178.687 293.482 180.179C294.632 181.031 294.877 181.96 294.168 183.001C293.932 183.636 293.238 184.582 292.04 186.61C290.293 189.274 290.228 189.385 289.911 189.971C289.289 190.949 288.4 191.027 287.216 190.327C277.65 183.821 266.86 180.565 255.071 180.333C240.428 180.565 229.418 189.293 228.709 201.252C228.563 211.995 236.586 219.821 253.961 225.714C289.3 237.099 302.78 250.4 300.212 271.417ZM256.636 86.0319C279.596 86.0319 298.353 107.817 299.282 135.127H214.045C214.865 107.817 233.677 86.0319 256.636 86.0319ZM375.637 140.301C375.637 137.451 373.431 135.127 370.616 135.127H370.432H315.331C313.937 99.0949 288.163 70.2949 256.636 70.2949C225.09 70.2949 199.383 99.0949 198.008 135.127H142.676C139.901 135.19 137.699 137.463 137.699 140.301C137.699 140.465 137.699 140.537 137.699 140.701H137.636L145.495 314.499C145.495 314.969 145.587 315.443 145.587 316.008C145.587 316.118 145.602 316.152 145.602 316.359V316.625L145.66 316.717C146.843 328.834 155.597 338.494 167.561 338.967V339.059H343.07C343.162 339.059 343.216 339.059 343.307 339.059C343.443 339.059 343.443 339.059 343.543 339.059H343.907V338.967C356.041 338.672 365.976 328.834 366.923 316.584L366.976 316.359C366.976 316.244 366.976 316.119 366.976 316.008C366.976 315.654 367.068 315.429 367.068 315.061L375.637 140.537C375.637 140.473 375.637 140.374 375.637 140.301Z" fill="white"/>
<path d="M356.675 398.031C358.198 393.212 362.515 390.135 367.595 390.135C372.574 390.135 377.241 393.459 378.765 398.031L379.013 398.29H356.63L356.675 398.031ZM383.849 404.892C383.918 404.892 383.918 404.892 384.028 404.892C384.099 404.892 384.099 404.892 384.099 404.892C385.115 404.871 386 403.876 386 402.858C386 402.725 385.996 402.61 385.986 402.6C385.99 402.6 385.99 402.6 385.99 402.483C385.99 391.936 377.749 383.562 367.593 383.562C357.463 383.562 349.312 391.936 349.312 402.483C349.312 403.294 349.312 404.097 349.459 404.889L349.471 404.892L349.541 405.122C350.04 408.836 351.597 412.25 354.136 415.048C356.931 418.182 360.738 420.375 365.054 421.142H365.308C365.562 421.142 365.6 421.142 365.816 421.195C371.402 421.899 376.439 421.142 380.545 419.009C381.561 418.469 382.576 417.836 383.336 417.328C383.592 417.079 383.844 416.844 384.1 416.78C384.1 416.571 384.23 416.571 384.334 416.571C385.182 415.555 385.328 415.234 384.664 414.281C384.1 413.265 383.59 412.509 383.084 411.742C382.828 411.493 382.788 411.234 382.576 411.13C382.576 410.985 382.576 410.985 382.572 410.985C382.548 410.985 382.548 410.985 382.518 410.985H382.506C381.976 410.218 381.56 410.218 381.052 410.726C381.026 410.726 380.796 410.985 380.792 410.985C376.733 414.54 371.147 415.742 365.666 414.54C364.629 414.281 363.757 413.969 362.769 413.524C359.409 411.742 356.931 408.695 356.167 405.14V404.891L383.849 404.892ZM313.007 398.031C314.53 393.212 318.839 390.135 323.952 390.135C328.958 390.135 333.567 393.459 335.126 398.031L335.349 398.29H313.007V398.031ZM340.226 404.892C340.302 404.892 340.302 404.892 340.412 404.892C340.428 404.892 340.428 404.892 340.428 404.892C341.444 404.871 342.385 403.876 342.385 402.858C342.385 402.725 342.381 402.61 342.371 402.6C342.373 402.6 342.373 402.6 342.373 402.483C342.373 391.936 334.076 383.562 323.939 383.562C313.849 383.562 305.636 391.936 305.636 402.483C305.636 403.294 305.636 404.097 305.843 404.889L305.857 404.892L305.898 405.122C306.406 408.836 307.929 412.25 310.468 415.048C313.253 418.182 317.07 420.375 321.378 421.142H321.643C321.886 421.142 321.984 421.142 322.146 421.195C327.732 421.899 332.81 421.142 336.873 419.009C337.895 418.469 338.904 417.836 339.664 417.328C339.92 417.079 340.172 416.844 340.428 416.78C340.428 416.571 340.614 416.571 340.68 416.571C341.566 415.555 341.694 415.234 341.046 414.281C340.428 413.265 339.92 412.509 339.412 411.742C339.158 411.493 339.154 411.234 338.904 411.13C338.904 410.985 338.904 410.985 338.904 410.985C338.904 410.985 338.904 410.985 338.9 410.985H338.89C338.359 410.218 337.888 410.218 337.38 410.726L337.122 410.985C333.059 414.54 327.474 415.742 322.05 414.54C321.012 414.281 320.114 413.969 319.101 413.524C315.788 411.742 313.253 408.695 312.504 405.14L312.499 404.891L340.226 404.892ZM279.737 415.297C272.887 415.297 267.301 409.968 267.102 403.108V402.475C267.301 395.751 272.887 390.311 279.737 390.311C286.6 390.311 292.258 395.924 292.258 402.861C292.259 409.711 286.601 415.297 279.737 415.297ZM279.737 383.633C275.188 383.633 270.942 385.158 267.54 387.957L267.102 388.369V384.826C267.102 383.81 266.966 383.633 265.974 383.633H261.624C260.641 383.633 260.466 383.811 260.466 384.826V440.587C260.466 441.453 260.641 441.705 261.624 441.705H265.974C266.945 441.705 267.102 441.453 267.102 440.587V417.328L267.54 417.587C270.944 420.375 275.188 421.899 279.737 421.899C290.399 421.899 299.032 413.363 299.032 402.861C299.032 392.196 290.399 383.633 279.737 383.633ZM234.484 414.809C227.496 414.809 221.911 409.317 221.911 402.485C221.911 395.655 227.497 390.161 234.484 390.161C241.461 390.161 247.054 395.655 247.054 402.485C247.055 409.316 241.461 414.809 234.484 414.809ZM234.484 383.562C223.819 383.562 215.185 391.936 215.185 402.509C215.185 413.017 223.819 421.393 234.484 421.393C245.148 421.393 253.787 413.017 253.787 402.509C253.787 391.936 245.148 383.562 234.484 383.562ZM191.445 383.92C187.615 383.92 183.826 385.143 180.68 387.494L180.303 387.815V361.914C180.303 360.961 180.019 360.709 179.167 360.709H174.561C173.67 360.709 173.417 360.961 173.417 361.914V420.887C173.417 421.899 173.671 422.158 174.561 422.158H179.167C180.019 422.158 180.303 421.855 180.303 420.887V401.586C180.4 395.536 185.35 390.673 191.446 390.673C197.654 390.673 202.615 395.596 202.615 401.693V420.887C202.615 421.899 202.791 422.158 203.76 422.158H208.331C209.346 422.158 209.471 421.899 209.471 420.887V401.584C209.47 391.936 201.345 383.92 191.445 383.92ZM127.454 411.412L127.443 411.453C126.76 412.412 126.456 412.758 126.32 413.016C125.81 413.773 125.891 414.168 126.693 414.788C128.481 416.311 130.887 417.835 132.476 418.601C136.919 420.881 141.685 421.899 146.78 422.151C150.059 422.188 154.244 421.391 157.293 420.125C162.878 417.586 166.426 412.757 167.03 406.852C168.021 397.194 161.736 391.18 145.582 386.327L145.571 386.324C137.998 383.81 134.45 380.549 134.449 376.123C134.695 371.117 139.318 367.31 145.581 367.093C150.565 367.124 155.008 368.555 159.406 371.374C160.338 371.883 160.72 371.766 161.356 370.901C161.447 370.867 161.61 370.609 162.483 369.342H162.488C163.257 368.318 163.511 367.818 163.514 367.818C164.047 366.802 164.019 366.387 163.031 365.787C162.117 365.023 159.517 363.756 158.052 363.123C153.864 361.469 149.549 360.709 145.312 360.709C135.582 360.961 127.97 367.311 127.463 375.597C127.199 381.532 130.244 386.35 136.595 389.905C138.374 390.921 144.852 393.384 147.898 394.228C156.531 396.767 161.091 401.395 160.102 406.923C159.314 411.994 154.05 415.297 146.741 415.532C141.417 415.297 136.024 413.426 131.391 409.969C131.37 409.966 131.255 409.748 131.011 409.71C130.718 409.461 130.718 409.461 130.634 409.445C129.736 408.694 129.122 408.708 128.597 409.71C128.479 409.711 127.791 410.827 127.454 411.412Z" fill="white"/>
</svg>
