<svg width="161" height="93" viewBox="0 0 161 93" fill="none" xmlns="http://www.w3.org/2000/svg">
  <g clip-path="url(#clip0_342_304)">
    <path
      d="M16.3981 29.0282C22.5744 29.0282 27.612 34.5053 27.612 41.2367C27.612 47.9681 22.5715 53.4452 16.3981 53.4452C10.2247 53.4452 5.1986 47.9681 5.1986 41.2367C5.1986 34.5053 10.2247 29.0282 16.4125 29.0282M16.4125 23.7043C7.35799 23.7043 0.0229492 31.5547 0.0229492 41.2367C0.0229492 50.9187 7.36662 58.772 16.4125 58.772C25.4584 58.772 32.802 50.9216 32.802 41.2367C32.802 31.5518 25.4469 23.7043 16.3981 23.7043H16.4125Z"
      fill="white" />
    <path
      d="M83.164 43.8957C82.1347 38.0771 77.3213 33.6602 71.5533 33.6602C65.0349 33.6602 59.7327 39.2962 59.7327 46.2249C59.7327 53.1536 65.0349 58.7926 71.5533 58.7926C73.7355 58.7683 75.8688 58.1271 77.7177 56.9398C79.5666 55.7524 81.0593 54.0652 82.0311 52.0641L77.3069 50.9128C75.944 52.7561 74.052 54.0606 71.5562 54.0606C68.3531 54.0606 65.2937 51.5783 64.7013 48.2597H83.2215C83.2929 47.6489 83.3303 47.0344 83.3337 46.4193C83.3349 45.575 83.2782 44.7318 83.164 43.8957ZM64.6841 43.8957C65.6013 40.7184 68.3329 38.4069 71.5533 38.4069C74.7737 38.4069 77.5082 40.7243 78.4226 43.9075L64.6841 43.8957Z"
      fill="white" />
    <path
      d="M100.413 23.7043H87.1118V58.7691H92.6958V45.4947H100.413C103.235 45.4947 105.941 44.3468 107.936 42.3035C109.931 40.2603 111.052 37.4891 111.052 34.5995C111.052 31.7099 109.931 28.9387 107.936 26.8955C105.941 24.8522 103.235 23.7043 100.413 23.7043ZM100.413 40.368H92.6958V28.831H100.413C101.907 28.831 103.34 29.4387 104.396 30.5205C105.453 31.6023 106.046 33.0696 106.046 34.5995C106.046 36.1294 105.453 37.5967 104.396 38.6785C103.34 39.7603 101.907 40.368 100.413 40.368Z"
      fill="white" />
    <path
      d="M129.187 33.7452V36.9696C128.344 35.9744 127.307 35.1718 126.142 34.6137C124.977 34.0557 123.71 33.7548 122.424 33.7305C115.986 33.7305 110.764 39.3429 110.764 46.2658C110.764 53.1886 115.986 58.8011 122.424 58.8011C124.946 58.8011 127.551 57.5231 129.187 55.7593V58.7775H134.196V33.7481L129.187 33.7452ZM122.424 53.6627C118.755 53.6627 115.773 50.3412 115.773 46.2569C115.773 42.1727 118.755 38.8512 122.424 38.8512C126.093 38.8512 129.391 41.5161 129.391 46.2569C129.391 50.9978 126.084 53.6627 122.424 53.6627Z"
      fill="white" />
    <path d="M147.003 45.9096L141.945 33.7218H136.505L144.156 52.1611L147.003 45.9096Z" fill="white" />
    <path d="M151.782 33.7218L153.441 37.7236L148.297 49.0221H148.294L145.447 55.2736H145.45L138.155 71.2953H143.892L161 33.7218H151.782Z" fill="#ADACFC" />
    <path
      d="M47.8919 33.5774C44.1712 33.5774 41.7473 35.1204 40.278 36.522V33.7217H35.2691V58.7717H40.278V45.0055C40.278 41.9725 42.3626 38.7069 46.9431 38.7069C51.8599 38.7069 52.4062 43.1416 52.4062 45.0467V58.7717H57.4122V44.4078C57.3979 38.6981 54.0596 33.5774 47.8919 33.5774Z"
      fill="white" />
  </g>
  <defs>
    <clipPath id="clip0_342_304">
      <rect width="161" height="47.5912" fill="white" transform="translate(0 23.7043)" />
    </clipPath>
  </defs>
</svg>