<svg width="278" height="163" viewBox="0 0 278 163" fill="none" xmlns="http://www.w3.org/2000/svg">
  <path
    d="M22 0.666992C107.107 0.666992 192.227 0.666992 277.333 0.666992C277.333 46.7737 277.333 92.8937 277.333 139C270.107 139 262.893 139 255.667 139C255.667 146.774 255.667 154.56 255.667 162.334C170.667 162.334 85.6666 162.334 0.666626 162.334C0.679959 116.334 0.653295 70.3203 0.679962 24.3203C7.78663 24.3337 14.8933 24.3337 22 24.3337C22 16.4403 22 8.56033 22 0.666992ZM30.3333 9.00033C30.3333 14.1203 30.3333 19.227 30.3466 24.3337C105.453 24.3337 180.56 24.3337 255.667 24.3337C255.667 59.7737 255.667 95.2137 255.667 130.654C260.107 130.667 264.547 130.667 269 130.667C269 90.107 269 49.5603 269 9.00033C189.44 9.00033 109.88 9.00033 30.3333 9.00033ZM8.99996 154C88.44 154 167.88 153.987 247.333 154C247.333 113.56 247.333 73.1203 247.333 32.667C167.907 32.6537 88.4666 32.6937 9.03996 32.6537C8.95996 73.0937 9.02663 113.547 8.99996 154Z"
    fill="white" />
  <path
    d="M48.9466 72.014C54.3466 63.694 66.5333 63.1874 74.6933 67.3207C80.1733 69.974 81.44 76.4674 81.8 81.9607C78.4133 82.0007 75.0266 81.9874 71.6533 82.094C71.0933 78.6674 70.6 73.8007 66.2 73.4007C61.2266 71.614 56.3733 75.9474 56.4933 80.9607C56.2933 88.5474 56.04 96.2007 56.6533 103.761C57.0533 108.827 62.5333 112.107 67.2266 110.307C71.0533 109.321 70.8799 104.667 71.5733 101.614C74.8666 101.667 78.16 101.667 81.4533 101.681C81.8266 107.654 79.6933 114.467 73.8133 117.054C65.64 120.654 54.12 119.587 48.8933 111.587C44.88 105.694 46.2 98.3074 46 91.6274C46.1333 85.0407 45 77.7874 48.9466 72.014Z"
    fill="white" />
  <path
    d="M130 71.8005C135.08 64.2005 146.187 63.1605 153.907 66.9605C159.213 69.5605 161.773 75.6272 161.48 81.3205C158.133 81.3338 154.8 81.3338 151.467 81.3338C151.267 77.4538 149.107 72.9205 144.64 72.9472C139.067 72.4672 136.133 80.5472 140.413 83.9205C145.96 88.5605 154.187 88.9738 158.907 94.8272C163.627 101.094 162.987 111.721 155.987 116.107C148.253 120.747 137.333 119.827 130.76 113.547C127.707 110.387 127.187 105.854 126.827 101.681C130.227 101.654 133.64 101.667 137.053 101.641C137.653 104.721 137.973 108.494 141.147 110.107C143.773 111.054 147.08 111.281 149.427 109.481C152.36 106.534 152.107 100.747 148.453 98.4805C143.733 95.4005 137.907 94.4272 133.44 90.8672C127.28 86.9072 126.453 77.7605 130 71.8005Z"
    fill="white" />
  <path
    d="M98.8933 65.6667C102.507 65.6667 106.107 65.6667 109.72 65.6533C114.693 83.1067 119.613 100.56 124.573 118.013C120.907 118 117.227 118 113.56 118C112.6 114.333 111.667 110.653 110.627 107C106.373 107 102.12 107 97.8666 107C96.92 110.68 96 114.36 94.9733 118.013C91.3333 118 87.6933 118 84.0533 117.987C88.9866 100.547 93.9466 83.1067 98.8933 65.6667ZM100.067 98.68C102.88 98.6667 105.68 98.6533 108.493 98.64C107.08 93.28 105.64 87.92 104.293 82.5467C102.88 87.92 101.44 93.2933 100.067 98.68Z"
    fill="white" />
  <path
    d="M168 65.667C171.547 65.667 175.107 65.667 178.667 65.667C178.667 73.227 178.667 80.7737 178.667 88.3337C184.107 88.3337 189.547 88.3203 194.987 88.3337C195 80.7737 194.987 73.227 195 65.667C198.44 65.667 201.88 65.667 205.333 65.667C205.333 83.107 205.333 100.56 205.333 118C201.893 118 198.44 118 195 118C194.987 110.774 195.013 103.547 194.987 96.3337C189.547 96.347 184.107 96.3337 178.667 96.3337C178.667 103.56 178.667 110.774 178.667 118C175.093 118.014 171.507 118.027 167.92 117.934C168.093 100.507 167.947 83.0937 168 65.667Z"
    fill="white" />
</svg>